# xmcd CD database file
#
# Track frame offsets:
#	150
#	20255
#	38992
#
# Disc length: 662 seconds
#
# Revision: 0
# Processed by: cddbd v1.5PL3 Copyright (c) Steve Scherf et al.
# Submitted via: CDex 1.51
#
DISCID=1a029403
DTITLE=スチャダラパー - ゲームボーイズ
DYEAR=1991
DGENRE=Rap
TTITLE0=ゲームボーイズ
TTITLE1=あんた誰?(REMIX)
TTITLE2=Bits of "NONSENSE"
EXTD=YEAR: 1991
EXTT0=
EXTT1=
EXTT2=
PLAYORDER=
